<svg xmlns="http://www.w3.org/2000/svg" xmlns:xlink="http://www.w3.org/1999/xlink" viewBox="0 0 1280 1024" xml:space="preserve">
<g transform="matrix(1 0 0 1 640 512)" id="background-logo">
<rect style="stroke: none; stroke-width: 0; stroke-dasharray: none; stroke-linecap: butt; stroke-dashoffset: 0; stroke-linejoin: miter; stroke-miterlimit: 4; fill: rgb(0,9,54); fill-rule: nonzero; opacity: 1;" paint-order="stroke" x="-640" y="-512" rx="0" ry="0" width="1280" height="1024" />
</g>
<g transform="matrix(1.9211538461538462 0 0 1.9211538461538462 640 409.1011755023726)" id="logo-logo">
<g style="" paint-order="stroke">
<g transform="matrix(0.3202733085273744 0 0 0.3202733085273744 -65.03237072530106 -93.9636188354813)">
<linearGradient id="lg_star" gradientUnits="userSpaceOnUse" gradientTransform="matrix(1 0 0 1 0 0)" x1="378.8972789" y1="150.4511955" x2="378.8972789" y2="251.7439859">
<stop offset="0%" style="stop-color:rgb(253,200,0);stop-opacity: 1"/>
<stop offset="99.75368999999999%" style="stop-color:rgb(227,76,0);stop-opacity: 1"/>
</linearGradient>
<path style="stroke: none; stroke-width: 0; stroke-dasharray: none; stroke-linecap: butt; stroke-dashoffset: 0; stroke-linejoin: miter; stroke-miterlimit: 4; fill: url(#lg_star); fill-rule: nonzero; opacity: 1;" paint-order="stroke" transform=" translate(-378.8972788099894, -172.16425659218731)" d="M 417.844778 165.9854805 L 401.7052342 179.1234976 C 399.4713898 180.9418398 398.51015540000003 183.9002673 399.248579 186.68429 L 404.58341540000004 206.7997183 C 405.23994330000005 209.27509039999998 402.50590420000003 211.26145499999998 400.35460090000004 209.8721687 L 382.87224050000003 198.5823979 C 380.45258900000005 197.0198542 377.34191580000004 197.0198542 374.92233600000003 198.5823979 L 357.4399756 209.87216869999997 C 355.28860060000005 211.26145499999998 352.5546332 209.27509039999998 353.21108940000005 206.79971829999997 L 358.54599750000006 186.68428999999998 C 359.28434940000005 183.90026729999997 358.32311500000003 180.94183979999997 356.08934230000006 179.12349759999998 L 339.94972680000006 165.98548049999997 C 337.9637208000001 164.36879389999996 339.0079982000001 161.15478299999995 341.5650509000001 161.01422649999998 L 362.34453700000006 159.87198979999997 C 365.22049510000005 159.71386369999996 367.73703020000005 157.88548179999998 368.7761444000001 155.19913149999996 L 376.2837261000001 135.78964109999995 C 377.2075265000001 133.40118449999994 380.5869782000001 133.40118449999994 381.5108503000001 135.78964109999995 L 389.0183603000001 155.19913149999996 C 390.0574744000001 157.88548179999995 392.5740095000001 159.71386369999996 395.4500394000001 159.87198979999997 L 416.2295255000001 161.01422649999998 C 418.78657820000006 161.15478299999998 419.83085560000006 164.3687939 417.84477790000005 165.98548049999997 Z" stroke-linecap="round" />
</g>
<g transform="matrix(0.3202733085273744 0 0 0.3202733085273744 0 4.276710942647696)">
<linearGradient id="lg_swoosh1" gradientUnits="userSpaceOnUse" gradientTransform="matrix(1 0 0 1 0 0)" x1="383.7011172" y1="324.3737271" x2="746.7686926" y2="599.6196471">
<stop offset="0%" style="stop-color:rgb(253,200,0);stop-opacity: 1"/>
<stop offset="99.75368999999999%" style="stop-color:rgb(227,76,0);stop-opacity: 1"/>
</linearGradient>
<path style="stroke: none; stroke-width: 0; stroke-dasharray: none; stroke-linecap: butt; stroke-dashoffset: 0; stroke-linejoin: miter; stroke-miterlimit: 4; fill: url(#lg_swoosh1); fill-rule: nonzero; opacity: 1;" paint-order="stroke" transform=" translate(-581.9500121904941, -478.90330465660696)" d="M 879.5335835 511.4900645 C 859.6850716 600.7968191 710.3626555999999 640.3867537 546.0126731999999 599.9163832 C 381.6628042999999 559.4460128000001 264.52113179999986 454.2409036 284.3695301999999 364.9340354 C 289.86110299999984 340.2250793 305.27871929999986 319.33070210000005 328.1685770999999 302.87601700000005 C 317.58859109999986 313.98112060000005 310.3752479999999 326.73467210000007 307.2037718999999 341.0043848 C 289.70600229999985 419.7347287 401.3179085999999 514.5352127 556.4961255999999 552.746891 C 711.6743426999999 590.9587964 851.6558184999999 558.1119657 869.1537016 479.3816217 C 872.3251776999999 465.11190899999997 871.2349899 450.31367359999996 866.4333397 435.42083429999997 C 880.0130163 460.85603369999995 885.0250427000001 486.78110829999997 879.5335834 511.49006439999994 Z M 621.7250526 639.7102811 C 580.0540001 634.5699973999999 538.972591 625.1494921999999 498.98080230000005 612.2245525 C 459.03543590000004 599.1970068999999 420.09603880000003 582.5096990999999 383.59778830000005 560.8799985999999 C 347.18841000000003 539.2358833 312.70754610000006 513.0922036999999 284.74238460000004 478.8538937999999 C 295.7101506 498.36853919999993 309.9719749 515.7551334999999 325.5587095 531.4790920999999 C 341.2602514 547.1221803999999 358.5372026 560.9444110999999 376.6519697 573.2993998999999 C 412.9633389 597.9653954999999 452.7773266 616.4193068999999 493.8566926 629.8319651999999 C 534.9791326999999 643.1590428999999 577.5309616 651.5844749999999 620.4667114 654.1298734 C 641.9222997 655.3959894999999 663.4603473 655.2047951999999 684.8516367 653.2395061 C 706.2214742 651.1455056 727.4940971 647.6243863 748.082132 641.43557 C 705.6417054 645.9368368 663.4048448 644.9095859 621.7250526 639.7102811 Z" stroke-linecap="round" />
</g>
<g transform="matrix(0.3202733085273744 0 0 0.3202733085273744 -69.53790536489959 -93.67429664090585)">
<path style="stroke: none; stroke-width: 0; stroke-dasharray: none; stroke-linecap: butt; stroke-dashoffset: 0; stroke-linejoin: miter; stroke-miterlimit: 4; fill: rgb(255,234,51); fill-rule: nonzero; opacity: 1;" paint-order="stroke" transform=" translate(-364.8294982, -173.06761690000002)" d="M 360.0244714 174.2901765 L 350.7613369 166.7501743 L 362.6871742 166.0951536 C 367.99884610000004 165.8022614 372.67002560000003 162.40843470000002 374.5886653 157.4482221 L 378.8976595 146.30901120000001 C 378.8976595 146.30901120000001 376.9535385 163.7795403 373.89913989999997 167.38930480000002 C 370.84474129999995 170.99906930000003 368.06802559999994 170.99906930000003 368.06802559999994 172.9427362 C 368.06802559999994 174.88651660000002 370.28937549999995 179.6070128 369.4564401999999 184.32739550000002 C 368.62339139999995 189.04789170000004 361.50794389999993 199.82622260000002 361.50794389999993 199.82622260000002 L 364.5693228999999 188.28226310000002 C 365.9341290999999 183.14249010000003 364.1508973999999 177.64898780000001 360.0244712999999 174.29017650000003 Z" stroke-linecap="round" />
</g>
<g transform="matrix(0.3202733085273744 0 0 0.3202733085273744 1.5468504558144218 19.512539473593307)">
<path style="stroke: none; stroke-width: 0; stroke-dasharray: none; stroke-linecap: butt; stroke-dashoffset: 0; stroke-linejoin: miter; stroke-miterlimit: 4; fill: rgb(255,234,51); fill-rule: nonzero; opacity: 1;" paint-order="stroke" transform=" translate(-586.7797948, -526.4746386556855)" d="M 620.9617509 645.8954085 C 630.0984440999999 647.0351967 639.2564755999999 647.9713054 648.3054884 648.6927816 C 639.260505 648.7154253 630.0862993999999 648.4543704 620.8346852999999 647.9082549999999 L 620.4504238999999 647.8851573 C 579.1739046999999 645.4050225999999 537.2287445999999 637.3362708999999 495.7782266999999 623.9035793999999 C 452.9285114999999 609.9127980999999 414.0222568999999 591.1508419999999 380.1543611999999 568.1441337999998 C 373.1625174999999 563.3751154999999 366.43927649999995 558.4736401999999 360.01097079999994 553.4587195999999 C 366.5539703999999 557.7823555999998 373.35399549999994 562.0406711999999 380.41377029999995 566.2368442999999 C 414.95984109999995 586.7098447999999 454.19860009999996 604.1746987999999 497.04786129999997 618.1494763 C 538.4316967 631.5240546 580.1164263 640.8567658999999 620.9617509 645.8954084999999 Z M 800.9587375 555.0553538 C 761.4680038 570.8970141 710.5338735 577.4653814000001 653.6652852 574.0489110000001 C 621.4317063999999 572.1122812000001 588.2377295 566.9817019000001 555.0061833999999 558.7988238 C 479.0351893999999 540.0910649 410.86899789999995 507.42578080000004 363.0613969 466.82017270000006 C 339.14076969999996 446.50198910000006 321.6739862 425.32289190000006 311.10012919999997 404.25514030000005 C 320.76874999999995 429.20432370000003 339.08021629999996 454.42455010000003 365.41548739999996 478.4576579000001 C 412.2162112 521.1649847000001 479.1789964999999 551.8221326 553.7553899999999 571.2564186000001 C 586.3768054999999 579.7571027000001 618.9750098 585.0315459000001 650.6438020999999 586.9341251000001 C 706.5156715999999 590.2906096 756.6004087999999 583.1194326000001 795.4808415999998 566.1972889000001 C 828.3592258999998 551.8863181000002 851.0814409999998 534.9829591000001 862.4594603999999 509.89524640000013 C 849.7047170999999 528.4961998000001 828.9262256999999 543.8354997000001 800.9587372999999 555.0553539000001 Z" stroke-linecap="round" />
</g>
<g transform="matrix(0.3202733085273744 0 0 0.3202733085273744 16.48566904887383 50.25728876713367)">
<linearGradient id="lg_blue1" gradientUnits="userSpaceOnUse" gradientTransform="matrix(1 0 0 1 0 0)" x1="634.5319391" y1="469.9807255" x2="633.7462291" y2="574.4801501">
<stop offset="0%" style="stop-color:rgb(0,102,203);stop-opacity: 1"/>
<stop offset="100%" style="stop-color:rgb(86,219,255);stop-opacity: 1"/>
</linearGradient>
<path style="stroke: none; stroke-width: 0; stroke-dasharray: none; stroke-linecap: butt; stroke-dashoffset: 0; stroke-linejoin: miter; stroke-miterlimit: 4; fill: url(#lg_blue1); fill-rule: nonzero; opacity: 1;" paint-order="stroke" transform=" translate(-633.4237647947164, -622.469991608779)" d="M 489.607968 644.5075047 C 497.7062303 647.1482449 505.8332087 649.5721960000001 513.9869168 651.8104577 C 510.69399350000003 676.2118799 508.3103923 700.8084689 506.45361130000003 725.4678814 C 505.66465810000005 735.7377797 491.2578348 737.5565375 488.0369286 727.7792952 C 478.5291403 698.9872708 472.34577210000003 668.3815393 468.9389494 637.2870677 C 475.7326752 639.8182783 482.6116978 642.229574 489.6079681 644.5075046999999 Z M 468.3224626 447.8383062 C 473.75700059999997 455.8445183 475.85151179999997 465.6633592 474.1549957 475.1919183 C 473.87118369999996 476.798257 473.60280789999996 478.4053901 473.33545369999996 479.9970303 C 472.1318773 487.5572926 471.0626306 495.2193663 470.12771369999996 502.98313790000003 C 469.96489489999993 504.39379890000004 469.8030409 505.7887966 469.64016539999994 507.19945770000004 C 482.86707749999994 513.0672900000001 496.6526468999999 518.4691961000001 510.8900115999999 523.36755 L 518.1520470999999 512.3940521000001 C 508.62768749999987 484.3970532000001 491.9972442999999 460.6244328000001 468.3224625999999 447.83830610000007 Z M 795.6395744 779.950939 C 761.7782618 744.7316304 730.4220544 707.3060108999999 705.0283967 666.2428756999999 C 698.9047874 667.1078752999999 692.599972 667.8683961999999 686.0364853 668.5196713999999 C 669.1175197 670.0626190999999 651.5576645 670.5837072999999 633.7783529 670.0769771999999 C 629.0887861 669.9355535999998 624.3095526 669.7264258999999 619.5659587 669.4413085999998 L 619.4414469 669.4338174999998 C 660.5832390999999 725.8347202999998 716.6068041 770.4401429999998 784.8489852 796.3939335999999 C 794.9054995 800.2137904999998 803.0879236000001 787.6879809999998 795.6395744 779.9509390999998 Z M 647.9539723 518.3694844 C 647.3446362000001 514.7428649000001 646.7829142 511.1034763 646.2861155 507.4211273 C 644.4987977000001 494.3116332 650.1806 481.3233025 661.1325325 473.88062840000003 C 659.975719 474.1701155 622.872332 483.80269940000005 609.3774414000001 495.90003850000005 C 598.6375309000001 505.52501770000003 588.1318888000001 515.9289620000001 580.8270630000001 528.9134335000001 L 586.7569809 543.7390796000001 C 609.9143064 548.2526614000001 632.8532538000001 551.2078592 655.2973321000001 552.5256187000001 C 652.3600677000001 541.4074624000001 649.8907157000001 530.0363666000001 647.9539723 518.3694844000001 Z" stroke-linecap="round" />
</g>
<g transform="matrix(0.3202733085273744 0 0 0.3202733085273744 11.917682248024846 -31.126991733884097)">
<linearGradient id="lg_blue2" gradientUnits="userSpaceOnUse" gradientTransform="matrix(1 0 0 1 0 0)" x1="619.1609877" y1="249.5483755" x2="619.1609877" y2="457.2632703">
<stop offset="0%" style="stop-color:rgb(0,102,203);stop-opacity: 1"/>
<stop offset="100%" style="stop-color:rgb(86,219,255);stop-opacity: 1"/>
</linearGradient>
<path style="stroke: none; stroke-width: 0; stroke-dasharray: none; stroke-linecap: butt; stroke-dashoffset: 0; stroke-linejoin: miter; stroke-miterlimit: 4; fill: url(#lg_blue2); fill-rule: nonzero; opacity: 1;" paint-order="stroke" transform=" translate(-619.1609877251792, -368.36114665)" d="M 541.2837211 233.1446882 L 502.82738889999996 192.9821355 L 623.8162155 206.7351299 L 708.0307546 294.68615850000003 L 689.8749565 292.6223496 L 688.4530020000001 316.2809004 C 689.8605417000001 317.3164369 690.8328576000001 318.9111984 691.0068563000001 320.7588993 L 694.3237286000001 356.0639588 L 671.0465449000001 354.664875 L 678.5682165000001 320.0112609 C 678.9618986 318.1976674 680.1185986 316.7308228 681.6400377000001 315.87138480000004 L 683.0837846000001 291.8504217 L 652.7814443000001 288.40574610000004 L 637.8613077000001 318.5095145 C 621.8983137000001 306.55967150000004 604.0390398000001 295.5188101 584.5901689000001 285.8794161 C 565.1413547000001 276.2400788 545.5399369 268.7145482 526.3634711000001 263.24839990000004 L 541.2837212000001 233.14468830000004 Z M 538.4778921 378.5069588 C 571.0346681 394.6429868 610.5079791999999 381.33134540000003 626.6438936999999 348.7745126 C 629.9741591999999 342.0554712 632.0307039999999 335.0412108 632.9421259999999 327.99891549999995 L 631.8155039999999 327.15559479999996 C 615.8525666999999 315.206149 598.3304509 304.47463769999996 579.7381803999999 295.2598551 C 561.1444343999999 286.0443347 541.993166 278.5995608 522.8184025999999 273.1339233 L 521.4637548999999 272.7477324 C 516.4116055999999 277.7376826 512.0755978 283.62214290000003 508.7455025999999 290.3410708 C 492.60941789999987 322.8979036 505.9214564999999 362.3711579 538.4778919999999 378.50695890000003 Z M 544.9790094 415.7489886 C 530.9910657 404.31001860000003 517.2871042 392.4206722 504.937904 379.2107287 C 490.4572476 363.9125166 476.8297298 347.3229341 464.4975549 329.4373845 C 445.8784412 302.3892065 431.0009814 273.9706608 417.89784330000003 244.100196 C 414.040701 235.30724400000003 400.87366130000004 238.1892329 401.06672840000004 247.7890714 C 401.52834150000007 270.7415256 405.30665660000005 293.6915962 410.5253703 316.0248396 C 421.6572036 362.8972967 441.1220783 407.8457228 468.3210439 447.8414841 C 483.4514999 472.6188253 499.1542336 497.6264622 510.8930762 523.3862209 C 518.2559583 525.9254902 525.7341586 528.3341185 533.3234207 530.5946834 C 533.2662724 530.3550804 533.2242199000001 530.1129237 533.1633260000001 529.873945 C 528.1268967000001 510.0956909 524.3816675 489.81723300000004 522.0280876 469.17658990000007 C 519.6358035000001 448.20559890000004 528.7408864 428.05284460000007 544.9790095000001 415.7489884000001 Z M 822.5493933 280.386311 C 746.5563799 339.9241285 661.7166712000001 388.1649104 571.682368 423.0017736 C 552.6103808 430.3812838 540.8999705 449.6189273 543.2168324 469.9372244 C 545.8236922000001 492.7974014 550.1529466000001 515.1724703 556.1106725000001 536.8611352 C 557.3465403000001 537.174174 558.5790597000001 537.492888 559.8194676 537.7983789 C 568.8212635000001 540.0151887 577.8027992000001 541.992963 586.7510221 543.7401578 C 604.1961835 514.3516798 634.1960407 493.09517420000003 661.1653914 473.8639435 C 696.5363388999999 449.8911053 777.7995959 388.0890909 835.8652343 292.17838600000005 C 841.0901906 283.5480825 830.4908525 274.16440880000005 822.5493933 280.38631090000007 Z" stroke-linecap="round" />
</g>
<g transform="matrix(0.3202733085273744 0 0 0.3202733085273744 0.47973731181929224 -35.68296811926945)">
<path style="stroke: none; stroke-width: 0; stroke-dasharray: none; stroke-linecap: butt; stroke-dashoffset: 0; stroke-linejoin: miter; stroke-miterlimit: 4; fill: rgb(148,255,255); fill-rule: nonzero; opacity: 1;" paint-order="stroke" transform=" translate(-583.4479119499999, -354.13587010000003)" d="M 485.8162596 446.3063681 C 486.1908733 447.1139924 486.56571410000004 447.92150319999996 486.9408953 448.72884369999997 C 486.9408953 448.72884369999997 445.6727753 397.342521 430.40151990000004 348.6560163 C 415.13259130000006 299.9770028 411.31642320000003 259.3768427 411.31528820000005 259.36430069999994 C 411.31528820000005 259.36430069999994 416.62117150000006 274.44929909999996 418.90608260000005 279.72413959999994 C 422.21370440000004 287.3599942999999 425.2621442 297.66212719999993 427.87314680000003 305.56908169999997 C 437.4822925 334.6684699 445.8093751 357.98617379999996 458.28484640000005 385.94571699999995 C 467.2957792 406.14058059999996 476.51146980000004 426.2453234999999 485.8162596 446.30636809999993 Z M 549.7533056 217.357282 L 598.0295001 222.9569088 C 610.0128262999999 224.7016065 621.2696821 227.79448240000002 630.5472881999999 235.5771521 L 656.4914878999999 253.3437515 L 619.2053624999999 216.129246 L 531.0499165999998 206.8499942 L 552.5229841999999 228.0442439 L 549.7533055999999 217.3572821 Z M 580.1367999 374.1472291 C 580.1367999 374.1472291 540.1105633000001 368.3294513 530.0040513 347.2497252 C 519.8975393000001 326.1699991 525.4399611 319.1103379 530.9482754 312.617336 C 536.4565897000001 306.1243341 559.1680789000001 297.25323590000005 559.1680789000001 297.25323590000005 C 559.1680789000001 297.25323590000005 538.5774902 289.7602236000001 524.7183146000001 283.80919430000006 C 524.7183146000001 283.80919430000006 509.9953879000001 301.69054430000006 512.7234112000001 331.99424660000005 C 515.4514345000001 362.29794890000005 554.1617844000001 380.54744300000004 580.1367999000001 374.14722910000006 Z M 680.621867 386.4421753 C 640.0260767 409.0238748 586.5340627999999 428.55577259999995 571.2909559999999 436.16972139999996 C 556.0477923999999 443.78367019999996 557.5990824999999 455.81909379999996 556.4535056999999 465.41768379999996 C 555.3079289 475.01627379999996 559.4075684999999 501.421746 559.4075684999999 501.421746 C 559.4075684999999 501.421746 564.0580338999999 461.8940106 571.9350804999999 453.8373468 C 579.8120703999999 445.78068299999995 635.0039487999999 426.3509372 679.7363803 401.1745226 C 724.4688686 375.99805119999996 755.5805356999999 340.9041625 755.5805356999999 340.9041625 C 755.5805356999999 340.9041625 721.2176572999999 363.86047579999996 680.621867 386.4421753 Z" stroke-linecap="round" />
</g>
</g>
</g>
<g transform="matrix(1.9211538461538462 0 0 1.9211538461538462 638.9231932692306 694.3919786717958)" id="text-logo">
<g style="" paint-order="stroke">
<g transform="matrix(1 0 0 1 5.684342e-14 0)" id="text-logo-path-0">
<path style="stroke: none; stroke-width: 0; stroke-dasharray: none; stroke-linecap: butt; stroke-dashoffset: 0; stroke-linejoin: miter; stroke-miterlimit: 4; fill: rgb(255,255,255); fill-rule: nonzero; opacity: 1;" paint-order="stroke" transform=" translate(-135.405, 21.974999999999998)" d="M 19.88 0.71 L 19.88 0.71 Q 24.54 0.71 28.05 -0.97 Q 31.57 -2.66 33.57 -5.63 Q 35.58 -8.61 35.58 -12.45 L 35.58 -12.45 Q 35.58 -21.3 25.02 -24.72 L 25.02 -24.72 L 16.58 -27.44 Q 12.57 -28.79 12.57 -31.92 L 12.57 -31.92 Q 12.57 -34.04 14.28 -35.37 Q 15.99 -36.7 18.76 -36.7 L 18.76 -36.7 Q 21.95 -36.7 24.43 -34.96 Q 26.9 -33.22 28.14 -30.15 L 28.14 -30.15 L 35.58 -33.51 Q 33.75 -38.7 29.23 -41.68 Q 24.72 -44.66 18.76 -44.66 L 18.76 -44.66 Q 14.28 -44.66 10.83 -43.01 Q 7.38 -41.36 5.46 -38.41 Q 3.54 -35.46 3.54 -31.57 L 3.54 -31.57 Q 3.54 -22.6 14.1 -19.12 L 14.1 -19.12 L 22.71 -16.28 Q 26.61 -14.99 26.61 -11.92 L 26.61 -11.92 Q 26.61 -9.79 24.93 -8.53 Q 23.25 -7.26 20.47 -7.26 L 20.47 -7.26 Q 16.93 -7.26 14.01 -9.32 Q 11.09 -11.39 9.44 -14.99 L 9.44 -14.99 L 1.95 -11.62 Q 3.25 -7.85 5.87 -5.07 Q 8.5 -2.3 12.12 -0.8 Q 15.75 0.71 19.88 0.71 Z M 58.53 0.71 L 58.53 0.71 Q 63.48 0.71 67.2 -1.45 Q 70.92 -3.6 72.39 -7.14 L 72.39 -7.14 L 65.31 -10.5 Q 64.37 -8.85 62.69 -7.91 Q 61.01 -6.96 58.65 -6.96 L 58.65 -6.96 Q 55.4 -6.96 53.34 -8.79 Q 51.27 -10.62 50.92 -13.63 L 50.92 -13.63 L 73.46 -13.63 Q 73.69 -14.28 73.78 -15.19 Q 73.87 -16.11 73.87 -17.05 L 73.87 -17.05 Q 73.87 -21.54 72.01 -25.1 Q 70.15 -28.67 66.61 -30.8 Q 63.07 -32.92 57.94 -32.92 L 57.94 -32.92 Q 53.34 -32.92 49.68 -30.74 Q 46.02 -28.56 43.87 -24.78 Q 41.71 -21 41.71 -16.17 L 41.71 -16.17 Q 41.71 -11.51 43.78 -7.67 Q 45.84 -3.84 49.62 -1.56 Q 53.4 0.71 58.53 0.71 Z M 57.94 -25.84 L 57.94 -25.84 Q 60.65 -25.84 62.42 -24.25 Q 64.19 -22.66 64.49 -20.12 L 64.49 -20.12 L 51.09 -20.12 Q 51.74 -22.89 53.54 -24.37 Q 55.34 -25.84 57.94 -25.84 Z M 80.65 -43.96 L 80.65 0 L 89.5 0 L 89.5 -43.96 L 80.65 -43.96 Z M 113.1 0.71 L 113.1 0.71 Q 118.06 0.71 121.78 -1.45 Q 125.49 -3.6 126.97 -7.14 L 126.97 -7.14 L 119.89 -10.5 Q 118.94 -8.85 117.26 -7.91 Q 115.58 -6.96 113.22 -6.96 L 113.22 -6.96 Q 109.98 -6.96 107.91 -8.79 Q 105.85 -10.62 105.49 -13.63 L 105.49 -13.63 L 128.03 -13.63 Q 128.27 -14.28 128.35 -15.19 Q 128.44 -16.11 128.44 -17.05 L 128.44 -17.05 Q 128.44 -21.54 126.58 -25.1 Q 124.73 -28.67 121.19 -30.8 Q 117.65 -32.92 112.51 -32.92 L 112.51 -32.92 Q 107.91 -32.92 104.25 -30.74 Q 100.6 -28.56 98.44 -24.78 Q 96.29 -21 96.29 -16.17 L 96.29 -16.17 Q 96.29 -11.51 98.35 -7.67 Q 100.42 -3.84 104.19 -1.56 Q 107.97 0.71 113.1 0.71 Z M 112.51 -25.84 L 112.51 -25.84 Q 115.23 -25.84 117 -24.25 Q 118.77 -22.66 119.06 -20.12 L 119.06 -20.12 L 105.67 -20.12 Q 106.32 -22.89 108.12 -24.37 Q 109.92 -25.84 112.51 -25.84 Z M 151.04 0.71 L 151.04 0.71 Q 154.7 0.71 157.77 -0.56 Q 160.83 -1.83 163.02 -4.07 Q 165.2 -6.31 166.09 -9.15 L 166.09 -9.15 L 158.42 -12.51 Q 157.59 -10.09 155.64 -8.67 Q 153.69 -7.26 151.04 -7.26 L 151.04 -7.26 Q 147.56 -7.26 145.32 -9.74 Q 143.08 -12.21 143.08 -16.11 L 143.08 -16.11 Q 143.08 -20 145.32 -22.48 Q 147.56 -24.96 151.04 -24.96 L 151.04 -24.96 Q 153.64 -24.96 155.61 -23.54 Q 157.59 -22.13 158.42 -19.71 L 158.42 -19.71 L 166.09 -23.01 Q 165.14 -26.02 162.96 -28.23 Q 160.78 -30.44 157.71 -31.68 Q 154.64 -32.92 151.04 -32.92 L 151.04 -32.92 Q 146.2 -32.92 142.31 -30.74 Q 138.41 -28.56 136.17 -24.75 Q 133.93 -20.95 133.93 -16.17 L 133.93 -16.17 Q 133.93 -11.39 136.2 -7.55 Q 138.47 -3.72 142.34 -1.5 Q 146.2 0.71 151.04 0.71 Z M 188.39 0.35 L 188.39 0.35 Q 190.57 0.35 192.52 0.06 L 192.52 0.06 L 192.52 -7.49 Q 191.28 -7.32 190.45 -7.32 L 190.45 -7.32 Q 184.97 -7.32 184.97 -12.21 L 184.97 -12.21 L 184.97 -24.54 L 192.52 -24.54 L 192.52 -32.21 L 184.97 -32.21 L 184.97 -39.53 L 176.12 -39.53 L 176.12 -37.17 Q 176.12 -32.21 170.98 -32.21 L 170.98 -32.21 L 170.69 -32.21 L 170.69 -24.54 L 176.12 -24.54 L 176.12 -11.62 Q 176.12 -5.96 179.33 -2.8 Q 182.55 0.35 188.39 0.35 Z M 199.95 -43.96 L 199.95 0 L 229.51 0 L 229.51 -7.97 L 209.1 -7.97 L 209.1 -18.05 L 228.33 -18.05 L 228.33 -26.02 L 209.1 -26.02 L 209.1 -35.99 L 229.51 -35.99 L 229.51 -43.96 L 199.95 -43.96 Z M 250.81 0.71 L 250.81 0.71 Q 253.76 0.71 256.33 -0.27 Q 258.89 -1.24 260.6 -3.07 L 260.6 -3.07 L 260.6 0 L 268.86 0 L 268.86 -43.96 L 260.01 -43.96 L 260.01 -29.5 Q 256.59 -32.92 250.75 -32.92 L 250.75 -32.92 Q 246.15 -32.92 242.43 -30.68 Q 238.71 -28.44 236.53 -24.63 Q 234.35 -20.83 234.35 -16.11 L 234.35 -16.11 Q 234.35 -11.45 236.5 -7.61 Q 238.65 -3.78 242.37 -1.53 Q 246.09 0.71 250.81 0.71 Z M 251.87 -7.26 L 251.87 -7.26 Q 248.21 -7.26 245.85 -9.74 Q 243.49 -12.21 243.49 -16.11 L 243.49 -16.11 Q 243.49 -19.94 245.85 -22.45 Q 248.21 -24.96 251.87 -24.96 L 251.87 -24.96 Q 255.47 -24.96 257.74 -22.48 Q 260.01 -20 260.01 -16.11 L 260.01 -16.11 Q 260.01 -12.15 257.74 -9.71 Q 255.47 -7.26 251.87 -7.26 Z" stroke-linecap="round" />
</g>
</g>
</g>
<g transform="matrix(1.9211538461538462 0 0 1.9211538461538462 639.9279567307691 784.2703535404804)" id="tagline-logo">
<g style="" paint-order="stroke">
<g transform="matrix(1 0 0 1 0 0)">
<path style="stroke: none; stroke-width: 0; stroke-dasharray: none; stroke-linecap: butt; stroke-dashoffset: 0; stroke-linejoin: miter; stroke-miterlimit: 4; fill: rgb(29,164,243); fill-rule: nonzero; opacity: 1;" paint-order="stroke" transform=" translate(-260.235, 10.5)" d="M 6.39 -15.54 C 6.39 -16.44 7.62 -16.98 8.79 -16.98 C 10.53 -16.98 12.48 -15.69 13.65 -14.28 L 17.1 -17.37 C 14.82 -20.19 12.33 -21.48 9.18 -21.48 C 4.8 -21.48 1.47 -18.96 1.47 -15.69 C 1.47 -9.51 13.08 -8.43 13.08 -5.7 C 13.08 -4.8 11.94 -4.02 10.35 -4.02 C 7.92 -3.99 5.19 -5.76 3.69 -7.23 L 0.87 -3.51 C 3.27 -1.02 6.66 0.48 10.14 0.48 C 13.32 0.48 17.97 -1.65 17.97 -5.76 C 17.97 -12.21 6.39 -12.93 6.39 -15.54 Z M 35.82 -21 L 31.02 -21 L 31.02 0 L 35.82 0 L 35.82 -8.4 L 44.22 -8.4 L 44.22 0 L 49.02 0 L 49.02 -21 L 44.22 -21 L 44.22 -12.9 L 35.82 -12.9 Z M 73.68 -21 L 68.58 -21 L 61.38 0 L 66.48 0 L 67.95 -4.5 L 74.31 -4.5 L 75.78 0 L 80.88 0 Z M 72.81 -9 L 69.45 -9 L 71.13 -14.16 Z M 102.45 -21 L 93.24 -21 L 93.24 0 L 98.04 0 L 98.04 -7.68 L 100.26 -7.68 L 104.31 0 L 109.41 0 L 105.15 -8.1 C 107.76 -8.97 109.41 -11.22 109.41 -14.34 C 109.41 -18.42 106.56 -21 102.45 -21 Z M 104.61 -14.34 C 104.61 -12.96 103.68 -12.18 102.39 -12.18 L 98.04 -12.18 L 98.04 -16.5 L 102.39 -16.5 C 103.68 -16.5 104.61 -15.69 104.61 -14.34 Z M 131.82 -21 L 122.61 -21 L 122.61 0 L 127.41 0 L 127.41 -7.68 L 131.82 -7.68 C 135.93 -7.68 138.78 -10.23 138.78 -14.34 C 138.78 -18.42 135.93 -21 131.82 -21 Z M 133.98 -14.34 C 133.98 -12.96 133.05 -12.18 131.76 -12.18 L 127.41 -12.18 L 127.41 -16.5 L 131.76 -16.5 C 133.05 -16.5 133.98 -15.69 133.98 -14.34 Z M 166.74 -21 L 151.65 -21 L 151.65 0 L 166.74 0 L 166.74 -4.5 L 156.45 -4.5 L 156.45 -8.7 L 164.94 -8.7 L 164.94 -13.2 L 156.45 -13.2 L 156.45 -16.5 L 166.74 -16.5 Z M 185.22 -21 L 180.12 -21 L 180.12 0 L 184.92 0 L 184.92 -12.93 L 193.02 0 L 198.12 0 L 198.12 -21 L 193.32 -21 L 193.32 -8.07 Z M 214.08 0.3 C 215.55 0.3 216.63 -0.75 216.63 -2.25 C 216.63 -3.72 215.58 -4.8 214.08 -4.8 C 212.61 -4.8 211.53 -3.75 211.53 -2.25 C 211.53 -0.78 212.58 0.3 214.08 0.3 Z M 234.48 -15.54 C 234.48 -16.44 235.71 -16.98 236.88 -16.98 C 238.62 -16.98 240.57 -15.69 241.74 -14.28 L 245.19 -17.37 C 242.91 -20.19 240.42 -21.48 237.27 -21.48 C 232.89 -21.48 229.56 -18.96 229.56 -15.69 C 229.56 -9.51 241.17 -8.43 241.17 -5.7 C 241.17 -4.8 240.03 -4.02 238.44 -4.02 C 236.01 -3.99 233.28 -5.76 231.78 -7.23 L 228.96 -3.51 C 231.36 -1.02 234.75 0.48 238.23 0.48 C 241.41 0.48 246.06 -1.65 246.06 -5.76 C 246.06 -12.21 234.48 -12.93 234.48 -15.54 Z M 263.91 -21 L 259.11 -21 L 259.11 0 L 263.91 0 Z M 287.46 -16.5 L 293.76 -16.5 L 293.76 -21 L 276.36 -21 L 276.36 -16.5 L 282.66 -16.5 L 282.66 0 L 287.46 0 Z M 306.6 0.3 C 308.07 0.3 309.15 -0.75 309.15 -2.25 C 309.15 -3.72 308.1 -4.8 306.6 -4.8 C 305.13 -4.8 304.05 -3.75 304.05 -2.25 C 304.05 -0.78 305.1 0.3 306.6 0.3 Z M 327 -15.54 C 327 -16.44 328.23 -16.98 329.4 -16.98 C 331.14 -16.98 333.09 -15.69 334.26 -14.28 L 337.71 -17.37 C 335.43 -20.19 332.94 -21.48 329.79 -21.48 C 325.41 -21.48 322.08 -18.96 322.08 -15.69 C 322.08 -9.51 333.69 -8.43 333.69 -5.7 C 333.69 -4.8 332.55 -4.02 330.96 -4.02 C 328.53 -3.99 325.8 -5.76 324.3 -7.23 L 321.48 -3.51 C 323.88 -1.02 327.27 0.48 330.75 0.48 C 333.93 0.48 338.58 -1.65 338.58 -5.76 C 338.58 -12.21 327 -12.93 327 -15.54 Z M 364.5 -21 L 364.5 -8.43 C 364.5 -5.85 362.79 -4.02 360.3 -4.02 C 357.84 -4.02 356.1 -5.85 356.1 -8.43 L 356.1 -21 L 351.3 -21 L 351.3 -8.55 C 351.3 -3.24 355.02 0.48 360.3 0.48 C 365.61 0.48 369.3 -3.24 369.3 -8.55 L 369.3 -21 Z M 393.12 0.48 C 396.63 0.48 399.57 -0.84 401.52 -3.12 L 397.92 -6.24 C 396.81 -4.83 395.13 -4.02 393.12 -4.02 C 389.49 -4.02 386.94 -6.69 386.94 -10.5 C 386.94 -14.28 389.49 -16.98 393.12 -16.98 C 394.86 -16.98 396.36 -16.35 397.47 -15.3 L 400.62 -18.81 C 398.7 -20.52 396.12 -21.48 393.12 -21.48 C 386.67 -21.48 382.14 -17.01 382.14 -10.53 C 382.14 -4.08 386.67 0.48 393.12 0.48 Z M 423.42 0.48 C 426.93 0.48 429.87 -0.84 431.82 -3.12 L 428.22 -6.24 C 427.11 -4.83 425.43 -4.02 423.42 -4.02 C 419.79 -4.02 417.24 -6.69 417.24 -10.5 C 417.24 -14.28 419.79 -16.98 423.42 -16.98 C 425.16 -16.98 426.66 -16.35 427.77 -15.3 L 430.92 -18.81 C 429 -20.52 426.42 -21.48 423.42 -21.48 C 416.97 -21.48 412.44 -17.01 412.44 -10.53 C 412.44 -4.08 416.97 0.48 423.42 0.48 Z M 459.51 -21 L 444.42 -21 L 444.42 0 L 459.51 0 L 459.51 -4.5 L 449.22 -4.5 L 449.22 -8.7 L 457.71 -8.7 L 457.71 -13.2 L 449.22 -13.2 L 449.22 -16.5 L 459.51 -16.5 Z M 487.98 -21 L 472.89 -21 L 472.89 0 L 487.98 0 L 487.98 -4.5 L 477.69 -4.5 L 477.69 -8.7 L 486.18 -8.7 L 486.18 -13.2 L 477.69 -13.2 L 477.69 -16.5 L 487.98 -16.5 Z M 508.62 -21 L 501.33 -21 L 501.33 0 L 508.62 0 C 515.1 0 519.6 -4.05 519.6 -10.5 C 519.6 -16.95 515.1 -21 508.62 -21 Z M 506.13 -16.5 L 508.62 -16.5 C 512.25 -16.5 514.8 -14.28 514.8 -10.47 C 514.8 -6.66 512.25 -4.5 508.62 -4.5 L 506.13 -4.5 Z" stroke-linecap="round" />
</g>
</g>
</g>
</svg>
